<svg width="33" height="34" viewBox="0 0 33 34" fill="none" xmlns="http://www.w3.org/2000/svg">
<path fill-rule="evenodd" clip-rule="evenodd" d="M32.6679 6.23878C29.8251 5.348 27.6624 3.18154 26.7742 0.332794C26.6355 -0.110923 26.0273 -0.110923 25.8886 0.332794C25.0003 3.18154 22.8377 5.348 19.9948 6.23878C19.552 6.37778 19.552 6.98722 19.9948 7.12622C22.8377 8.01632 25.0003 10.1828 25.8886 13.0322C26.0273 13.4759 26.6355 13.4759 26.7742 13.0322C27.6624 10.1828 29.8251 8.01632 32.6679 7.12622C33.1107 6.98722 33.1107 6.37778 32.6679 6.23878Z" fill="#FFE336"/>
<path fill-rule="evenodd" clip-rule="evenodd" d="M0.0231335 17.1581C0.0231339 25.9834 7.21817 33.1628 16.0611 33.1628C23.5635 33.1628 29.9881 28.0707 31.6848 20.7798C32.0156 19.3434 31.1235 17.911 29.6854 17.5775C28.2473 17.2448 26.8112 18.1377 26.4771 19.5728C25.3638 24.3562 20.9834 27.8279 16.0611 27.8279C10.1658 27.8279 5.36913 23.0412 5.36913 17.1581C5.36913 12.0379 9.02512 7.62859 14.0624 6.67498C15.5125 6.40089 16.4661 5.00581 16.1894 3.55672C15.9148 2.10962 14.5155 1.15867 13.0654 1.43342C5.50812 2.86518 0.0231332 9.47781 0.0231335 17.1581Z" fill="white"/>
</svg>
