<svg width="119" height="29" viewBox="0 0 119 29" fill="none" xmlns="http://www.w3.org/2000/svg">
<path d="M49.2733 21H54.3413C56.1193 21 57.0573 19.88 57.0573 18.48C57.0573 17.304 56.2593 16.338 55.2653 16.184C56.1473 16.002 56.8753 15.218 56.8753 14.042C56.8753 12.796 55.9653 11.662 54.1873 11.662H49.2733V21ZM51.2613 15.414V13.356H53.7533C54.4253 13.356 54.8453 13.804 54.8453 14.378C54.8453 14.98 54.4253 15.414 53.7533 15.414H51.2613ZM51.2613 19.306V17.108H53.8233C54.6073 17.108 55.0273 17.612 55.0273 18.2C55.0273 18.872 54.5793 19.306 53.8233 19.306H51.2613ZM64.7234 21H67.0054L64.9054 17.444C65.9134 17.206 66.9494 16.324 66.9494 14.672C66.9494 12.936 65.7594 11.662 63.8134 11.662H59.4454V21H61.4334V17.654H62.8894L64.7234 21ZM64.9194 14.658C64.9194 15.442 64.3174 15.946 63.5194 15.946H61.4334V13.37H63.5194C64.3174 13.37 64.9194 13.874 64.9194 14.658ZM69.3303 21H71.3183V11.662H69.3303V21ZM74.061 21H80.669V19.278H76.049V17.108H80.571V15.4H76.049V13.37H80.669V11.662H74.061V21ZM83.112 21H85.1V17.108H89.622V15.4H85.1V13.37H89.72V11.662H83.112V21Z" fill="white"/>
<path fill-rule="evenodd" clip-rule="evenodd" d="M28.5423 6.27157C26.0584 7.04985 24.1689 8.94271 23.3928 11.4317C23.2717 11.8194 22.7403 11.8194 22.6191 11.4317C21.843 8.94271 19.9535 7.04985 17.4697 6.27157C17.0828 6.15013 17.0828 5.61765 17.4697 5.49621C19.9535 4.71851 21.843 2.82565 22.6191 0.336094C22.7403 -0.0515862 23.2717 -0.0515862 23.3928 0.336094C24.1689 2.82565 26.0584 4.71851 28.5423 5.49621C28.9291 5.61765 28.9291 6.15013 28.5423 6.27157Z" fill="#FFE336"/>
<path fill-rule="evenodd" clip-rule="evenodd" d="M13.9835 29C6.27277 29 0 22.7136 0 14.9875C0 8.43251 4.44909 2.81933 10.8192 1.33692C12.0742 1.04791 13.3257 1.82736 13.617 3.08381C13.9078 4.34027 13.1276 5.59498 11.8737 5.8869C7.69442 6.85961 4.66117 10.6868 4.66117 14.9875C4.66117 20.1382 8.8434 24.3292 13.9835 24.3292C18.4571 24.3292 22.3095 21.1349 23.1427 16.7338C23.3822 15.4668 24.6011 14.6336 25.8672 14.8754C27.1315 15.1153 27.9624 16.3379 27.7223 17.6049C26.4714 24.2077 20.6938 29 13.9835 29Z" fill="white"/>
</svg>
